<svg xmlns="http://www.w3.org/2000/svg" xml:space="preserve" width="1016" height="458" style="shape-rendering:geometricPrecision;text-rendering:geometricPrecision;image-rendering:optimizeQuality;fill-rule:evenodd;clip-rule:evenodd" viewBox="0 0 363.86 164.17"><path d="M63.05 48.54s2.61-6.52 2.83-10.62c.21-4.1-3.67-6.03-1.09-9.15 2.57-3.11 5.62-4.49 3.26-7.72-2.39-3.23 5.19-11.57 5.81-7.29.61 4.28-.62 4.1 2.21 10.23 2.87 6.09 6.57 1.37 7.73-3.34 1.12-4.68 1.27-12.91-5.3-10.48C79.59-3.11 90.33-1.41 95.59 4.14s3.8 7.08 9.21 6.5c5.4-.55 5.22 5.84 1.34 8.38-10.52 6.85-.8 5.11 1.67 11.89 1.6 4.25-1.41 4.25-1.41 8.38 0 3.96 1.81 8.56 2.03 9.04.94 1.56 1.81 3.15 2.57 4.82.29.62.55 1.27.8 1.89h.04v.03c.29.73.58 1.49.83 2.25 1.56 4.54 2.4 9.18 2.4 13.35 0 9.76-4.61 22.02-12.66 29.57a22 22 0 0 1-1.85 1.63c-4.18 3.33-9.18 5.44-14.88 5.44-7.36 0-13.67-3.7-18.5-9.07a37.449 37.449 0 0 1-2.83-3.56h-.03c-5.12-7.25-7.98-16.39-7.98-24.01 0-6.96 2.39-15.23 6.71-22.13zm285.13 101.3c-3.5 0-6.53-.69-9.05-2.1-2.55-1.38-4.48-3.3-5.83-5.73-1.39-2.43-2.04-5.19-2.04-8.35 0-2.97.76-5.69 2.29-8.16 1.54-2.43 3.58-4.39 6.17-5.88 2.59-1.45 5.43-2.17 8.61-2.17 4.04 0 7.44 1.16 10.1 3.52 2.66 2.36 4.49 5.58 5.43 9.68l-25.35 8.82-1.6-4.03 20.79-7.51-1.5.98c-.58-1.63-1.56-3.05-2.95-4.24-1.39-1.2-3.21-1.82-5.43-1.82-1.9 0-3.58.48-5.07 1.38a9.73 9.73 0 0 0-3.47 3.7c-.84 1.56-1.28 3.38-1.28 5.37 0 2.1.44 3.95 1.35 5.55.88 1.6 2.12 2.83 3.69 3.74 1.53.9 3.32 1.38 5.29 1.38 1.35 0 2.62-.26 3.9-.77 1.28-.47 2.44-1.12 3.54-1.88l3.17 5.08a21.056 21.056 0 0 1-5.14 2.46c-1.9.66-3.8.98-5.62.98zm-69.37-31.16.58 6.82-.29-.58c1.13-2.28 2.77-4.1 4.89-5.44 2.08-1.31 4.48-1.96 7.22-1.96 1.75 0 3.28.26 4.59.8 1.35.54 2.45 1.3 3.32 2.32.88.98 1.43 2.21 1.68 3.7l-.36.22c1.16-2.21 2.8-3.92 4.92-5.19 2.12-1.23 4.34-1.85 6.64-1.85 3.03 0 5.43.84 7.18 2.5 1.75 1.71 2.67 3.92 2.7 6.61v22.49h-6.89v-20.06c-.07-1.6-.44-2.91-1.17-3.96-.69-1.05-1.97-1.63-3.76-1.7-1.75 0-3.35.54-4.77 1.59-1.43 1.09-2.52 2.47-3.32 4.18-.77 1.66-1.21 3.51-1.24 5.47v14.48h-6.93v-20.06c-.04-1.6-.44-2.91-1.21-3.96-.76-1.05-2.04-1.63-3.83-1.7-1.82 0-3.42.54-4.81 1.59-1.39 1.09-2.48 2.47-3.25 4.21-.76 1.71-1.16 3.56-1.16 5.52v14.4h-6.9v-30.44h6.17zm-36.91 31.16c-2.89 0-5.48-.61-7.85-1.85-2.33-1.23-4.19-3.01-5.58-5.4-1.35-2.36-2.04-5.26-2.04-8.71 0-3.37.73-6.31 2.15-8.78 1.46-2.46 3.36-4.35 5.77-5.69 2.4-1.31 5.03-1.96 7.91-1.96s5.29.62 7.29 1.92c1.97 1.31 3.47 2.83 4.53 4.61l-.44 1.16.66-6.46h6.38v30.44h-6.89v-7.95l.73 1.74c-.19.51-.62 1.13-1.28 1.89-.69.76-1.57 1.52-2.7 2.32-1.09.76-2.37 1.42-3.83 1.92-1.42.55-3.03.8-4.81.8zm1.86-5.66c1.71 0 3.28-.32 4.66-.98a9.227 9.227 0 0 0 3.47-2.64c.91-1.17 1.53-2.54 1.9-4.18v-5.95c-.41-1.45-1.1-2.75-2.08-3.84-.99-1.12-2.19-1.96-3.58-2.58-1.38-.61-2.92-.9-4.59-.9-1.83 0-3.54.43-5.07 1.3-1.54.87-2.74 2.11-3.69 3.67-.91 1.56-1.35 3.41-1.35 5.51 0 1.96.48 3.74 1.39 5.37.95 1.63 2.22 2.9 3.79 3.81 1.61.94 3.32 1.41 5.15 1.41zm-44.28 19.99c-2.27 0-4.27-.25-6.02-.8-1.72-.51-3.28-1.23-4.71-2.14a33.85 33.85 0 0 1-4.05-3.15l4.02-4.65c1.64 1.53 3.28 2.69 4.96 3.52 1.67.84 3.57 1.27 5.65 1.27 2.33 0 4.3-.4 5.91-1.16 1.6-.76 2.84-1.81 3.68-3.16.84-1.34 1.24-2.9 1.24-4.64l.08-8.23.62 1.3c-.92 2.11-2.52 3.88-4.86 5.34-2.29 1.45-5.14 2.17-8.46 2.17-2.81 0-5.4-.72-7.77-2.14a15.767 15.767 0 0 1-5.61-5.77c-1.43-2.43-2.12-5.15-2.12-8.19 0-3.2.73-5.99 2.23-8.42 1.46-2.43 3.43-4.35 5.87-5.77 2.41-1.41 5.07-2.1 7.91-2.1 2.74 0 5.22.54 7.48 1.63 2.26 1.13 3.9 2.5 4.96 4.24l-.4 1.24.77-5.88h6.31v30.65c0 2.72-.73 5.23-2.16 7.48-1.46 2.25-3.46 4.06-6.09 5.36-2.62 1.31-5.76 2-9.44 2zm-10.55-30.58c0 1.96.48 3.74 1.43 5.37a9.68 9.68 0 0 0 3.83 3.81c1.6.94 3.39 1.41 5.36 1.41 1.82 0 3.5-.32 4.96-1.01 1.46-.66 2.66-1.56 3.65-2.69a9.333 9.333 0 0 0 2.08-4.02v-6.03c-.44-1.45-1.17-2.75-2.23-3.84-1.02-1.12-2.26-1.96-3.68-2.58-1.46-.61-3.03-.9-4.78-.9-1.97 0-3.76.43-5.36 1.3a9.414 9.414 0 0 0-3.83 3.7c-.95 1.6-1.42 3.41-1.42 5.48h-.01zm156.09-75.96c-2.42-.36-5-.55-7.75-.55s-5.42.19-8.02.55c1.63 2.78 3.56 5.04 5.8 6.79 2.23 1.75 5.06 3.49 8.47 5.21 3.41 1.72 6.19 3.31 8.34 4.75 2.14 1.45 4.51 3.84 7.11 7.16 2.6 3.32 4.23 6.79 4.89 10.42-2.9 3.74-6.73 7.05-11.5 9.91-4.78 2.87-9.67 4.79-14.68 5.76-3.39-.31-7.66-1.26-12.82-2.86-5.17-1.6-9.05-2.4-11.65-2.4-2.6 0-5.19.82-7.79 2.45 1.09-3.08 2.87-6.95 5.35-11.6h.72c3.87 0 7.51.61 10.92 1.82 3.41 1.2 6.52 2.41 9.33 3.62 2.81 1.21 5.08 1.81 6.8 1.81 1.72 0 2.97-.12 3.76-.36 0-3.99-1.24-7.28-3.72-9.87-1.33-1.39-2.46-2.47-3.39-3.22-.94-.75-2.38-1.8-4.31-3.12l-1.54-1.09c-4.11-2.84-7.49-5.72-10.15-8.65-2.66-2.93-4.59-6.54-5.8-10.83 1.94-4.28 3.84-8 5.71-11.14 5.74-1.39 11.69-2.08 17.85-2.08h3.99c5.19 0 11.14.72 17.85 2.17-.97 3.99-2.14 7.58-3.53 10.78-5.08.36-9 .55-11.78.55.54-1.39 1.05-3.39 1.54-5.98zm-74.86-7.52c11.66 0 21.14 1.45 28.45 4.35 2.6 5.19 3.9 10.44 3.9 15.76 0 6.82-2.33 12.74-6.98 17.75-6.77 7.19-15.92 10.78-27.46 10.78-3.98 0-9.39-.45-16.22-1.36-2.35-12.14-3.53-23.34-3.53-33.6 0-3.57.18-7.43.54-11.6 9.73-1.39 16.83-2.08 21.3-2.08zm2.72 6.79c-1.09 11.36-1.63 19.49-1.63 24.41 0 4.93.09 8.93.27 12.01 3.26-1.76 5.81-4.7 7.65-8.84 1.85-4.13 2.77-8.33 2.77-12.59 0-4.25-.77-7.74-2.31-10.46-1.54-2.72-3.79-4.22-6.75-4.53zm-38.89 11.05-.09 3.08c-4.83 2.6-10.87 4.62-18.12 6.07 5.19 1.39 10.21 2.09 15.04 2.09h1.9c3.33 4.89 5.47 10.99 6.44 18.29h-23.47c-.61-4.23-1.83-7.86-3.67-10.91-1.84-3.05-4.09-5.12-6.75-6.21-.06 1.03-.09 3.08-.09 6.16s.18 6.73.54 10.96h-19.75c-1.75-8.75-2.63-16.89-2.63-24.41s.42-14.48 1.27-20.88h47.3c1.39 6.1 2.08 11.36 2.08 15.76zm-26.82-9.69c-.72 5.32-1.27 10.54-1.63 15.67 3.32-.48 6.04-1.66 8.15-3.53-1.14-4.05-3.32-8.09-6.52-12.14zm-31.34 38.1v.72h-21.02c-.25-3.32-.76-6.88-1.54-10.69-4.23 4.23-8.46 7.79-12.69 10.69h-21.11c-.43-2.47-.64-5.75-.64-9.82 0-4.08.61-8.17 1.82-12.28 4.34-1.27 8.53-3.41 12.55-6.43 4.01-3.02 6.93-6.28 8.74-9.78-1.69-2.66-3.41-4.98-5.17-6.98h30.09c5.98 13.11 8.97 27.96 8.97 44.57zm-24.2-16.58a81.775 81.775 0 0 0-6.16-15.21c-2.84 8.33-4.47 16.21-4.89 23.64 4.47-2.42 8.15-5.23 11.05-8.43zM37.24 57.72c-2.11-.36-4.15-.55-6.11-.55-1.97 0-4.34.34-7.12 1-.9 3.81-1.36 7.52-1.36 11.14 0 9.36 4.17 16.55 12.51 21.56 5.55-3.68 10.57-8.27 15.04-13.77.18 2.42.33 6.1.45 11.05-4.47 3.5-9.03 6.25-13.68 8.24-4.65 2-10.45 2.99-17.4 2.99h-2.08c-5.44-2.35-9.71-5.82-12.82-10.41C1.56 84.38 0 79.55 0 74.48c0-6.77 2.78-12.52 8.34-17.26 5.55-4.74 13.62-7.11 24.19-7.11 5.92 0 12.11.75 18.58 2.26-.97 3.81-2.18 7.4-3.63 10.78-3.81.37-7.73.55-11.78.55.6-1.69 1.12-3.69 1.54-5.98zM63.7 70.67c0-11.43 8.56-27.42 21.98-27.42 13.9 0 22.02 15.99 22.02 27.42 0 11.43-8.41 27.46-22.02 27.46C72.37 98.1 63.7 82.1 63.7 70.67zm15.16.58c-.32-3.77 2.47-7.07 6.24-7.4 3.78-.32 7.11 2.47 7.44 6.24.33 3.77-2.5 7.11-6.28 7.44-3.77.32-7.11-2.51-7.4-6.28z" style="fill:#fff"/></svg>