<svg xmlns="http://www.w3.org/2000/svg" xml:space="preserve" width="auto" height="auto" viewBox="0 0 64 64"><defs><linearGradient id="b" x1="33.97" x2="31.93" y1="41.02" y2=".15" gradientUnits="userSpaceOnUse"><stop offset="0" style="stop-opacity:1;stop-color:#321654"/><stop offset=".271" style="stop-opacity:1;stop-color:#1e889f"/><stop offset=".51" style="stop-opacity:1;stop-color:#09faeb"/><stop offset=".894" style="stop-opacity:1;stop-color:#1dfc92"/><stop offset="1" style="stop-opacity:1;stop-color:#32ff39"/></linearGradient><clipPath id="a"><path d="M24.05 18.51s1-2.49 1.08-4.05c.08-1.56-1.4-2.3-.41-3.49.98-1.19 2.14-1.72 1.24-2.95-.91-1.23 1.97-4.4 2.21-2.77.24 1.63-.23 1.56.85 3.89 1.09 2.34 2.5.53 2.94-1.26.43-1.79.49-4.93-2.01-4.01.41-5.06 4.5-4.41 6.51-2.29s1.46 2.7 3.52 2.48c2.06-.22 1.98 2.22.5 3.19-4.01 2.62-.3 1.96.65 4.53.6 1.63-.54 1.63-.54 3.21 0 1.51.68 3.26.77 3.44.37.59.69 1.21.98 1.84.11.24.22.48.31.72l.01.01c.11.29.22.58.32.87.6 1.73.91 3.5.91 5.09 0 3.72-1.75 8.39-4.82 11.28-.23.21-.47.42-.71.61-1.6 1.28-3.51 2.08-5.67 2.08-2.81 0-5.22-1.4-7.07-3.46-.38-.43-.74-.88-1.08-1.35-1.95-2.77-3.06-6.25-3.06-9.16 0-2.66.92-5.81 2.57-8.45z"/></clipPath></defs><g style="clip-path:url(#a)"><path d="M15.11.12h35.68v40.93H15.11z" style="fill:url(#b)"/></g><path d="M24.3 26.82c.01-1.12.24-2.34.66-3.55v.01l1.38 2.36.09.03s1.25.31 1.24.34c0 .04-.01.12-.02.21l-.07.12.06.03-.07.66v.07l.38.75-.36.07-.71-.41-1.57.05-1.01-.74zm.78-3.89c.59-1.57 1.5-3.08 2.68-4.25l2.15 1.8.18.32-2.03 2.03.32 1.22-.05.93-.43.79c-.36-.24-1-.46-1.24-.54l-1.4-2.4-.18.1zm3.03-4.58c1.27-1.13 2.81-1.86 4.58-1.86.26 0 .52.02.78.05.11.09.21.17.23.2.01.02-.01.07-.02.1-.12.11-.45.42-.52.56-.06.12-.27.65-.27.65l-.07.15.57.55-.11.2-.46.82-.05.06.01.02-.29.54c-.04.02-.17.1-.49.28-.17.1-.27.13-.33.16-.2.08-.25.1-.34.33-.04.11-.04.2-.04.29 0 .1-.01.21-.23.35-.04.03-.07.05-.1.08 0-.3-.02-.55-.06-.64-.05-.08-.13-.22-.21-.36l.02-.01-.05-.05-.35-.62-.03-.03-2.17-1.82zm6.05-1.69c2.79.63 4.82 3.02 5.94 5.69l-1.61.81c-.25-.02-1.19-.08-1.4-.01-.25.08-.65.96-.79 1.31l-.75.02c.08-.43.22-1.17.28-1.24.06-.1.23-.34.42-.59.14-.19.29-.38.4-.52.5-.6-1.62-1.06-2.04-1.14l-1.23-1.23.22-.39h.01l.11-.21.26-.51-.59-.56c.07-.16.17-.4.21-.48.04-.09.44-.45.44-.45l.04-.03.02-.04s.09-.22.06-.43zm6.12 6.14c.34.92.58 1.86.7 2.77-.12-.2-.3-.36-.3-.36l-.11-.13-1.91.82c-.25-.07-.98-.27-.98-.33 0-.33-.61-.78-.91-.98.15-.33.45-.97.47-.98.13-.04 1.1.03 1.35.04l1.69-.85zm.79 4.45c-.03 1.08-.25 2.25-.65 3.41l-.96-.85-.04-.02c-.01 0-.17-.07-.91-.2-.13-.02-.23-.03-.32-.04h-.28l-.06-.01c-.03-.01-.06-.04-.11-.1-.22-.25-.31-.75-.34-.92l.09-.26c.16-.1.61-.4.74-.42.32-.07.74-1.14.74-1.14l.02-.07-.05-.33 1.49-.64c.09.1.19.23.19.24 0 .14.06.33.13.56.04.13.09.28.13.43.03.11.1.24.19.36zm-.82 3.89c-.22.57-.49 1.13-.79 1.67l-.49-.79-.16-.76-1.03-.4.15-.82h.01l.06-.01h.16c.07.01.15.02.27.04.49.08.7.14.79.16l1.03.91zm-1.06 2.14c-.78 1.26-1.79 2.36-2.99 3.11-.1-.03-.21-.04-.32-.06-.12-.02-.19.04-.21 0-.02-.03-.05-.08-.09-.13-.06-.09-.13-.19-.16-.35-.04-.3-.35-.78-.45-.93l-.21-1.13 1.01-1.01-.19-.17-.34-.33c.58-.01 1.44-.03 1.45 0 .13.34.92.54.92.54l.08.02.96-.42.54.86zm-3.65 3.48c-.87.42-1.82.67-2.85.67-.22 0-.43-.02-.64-.04l-.17-1.05 1.16-.21c-.12-.53-.25-1.06-.38-1.58l-.01-.02-.3-.66a3.19 3.19 0 0 1-.12-.33c0-.07.99-.68 1.15-.83 0 0 .19-.16.3-.46l.22-.61c.17.17.37.37.56.55l.11.11c.19.19.38.37.5.49l-.83.84.27 1.48.03.04s.37.53.41.77c.04.27.14.43.24.56.02.03.04.06.06.1.06.1.16.15.29.18zm-3.99.56c-1.6-.3-3-1.21-4.12-2.45l.34-.4.06-.59.87-.25.05-.05c.03-.03.06-.07.09-.12.1-.17.19-.47.22-.75.04-.31.01-.62-.15-.77-.02-.02-.04-.03-.07-.05-.12-.07-.16-.18-.2-.29-.01-.03-.03-.07-.04-.11-.04-.08-.08-.21-.1-.33a.322.322 0 0 1 0-.14c.04-.09.21-.4.32-.59l.64.21 1.07-.21 1.58-1.57c.18.05.37.08.58.08.2 0 .4-.03.58-.09l-.04.18-.23.92c-.09.36.16.76.32 1.01.04.06.07.1.08.13.01.03.06.08.13.16l-.3.84c-.03.07-.15.21-.21.29-.18.11-1.28.85-1.28 1.16 0 .09.07.28.17.51.08.2.19.44.29.66l.25 1.03-1.12.2.22 1.38zm.09-8.68-1.35 1.34-.8.16-.83-.27-.07-.02-.05-.02h-.04s-.15-.03-.66.37c-.11.08-.2.16-.28.24-.08.08-.15.16-.21.23l-.03.03c-.13.15-.25.28-.35.32-.08.03-.14.05-.19.06-.26-.39-1.19-1.77-1.42-1.83-.04-.01-.11-.02-.21-.04-.16-.03-.41-.07-.62-.12-.12-.57-.2-1.12-.22-1.66l.84.62 1.6-.05.75.42.68-.12.01.01.05-.02.59-.11.95-.84h.96c.11.55.44 1.01.9 1.3zm-.93-1.78H29.6l-.99.86-.16.04-.39-.76c.01-.13.04-.41.06-.63l.69-1.26.05-1.11-.26-1.02 1.74-1.74.13.24c.03.05 0 .83-.01 1.34-.01.2-.02.36-.02.42v.16l2.16.92v.66c-1.02.04-1.84.86-1.89 1.88zm3.8.88.51.17 1.29.44.64-.01c-.13.39.2 1.16.43 1.42.03.04.07.07.09.1l-.24 1.31 1.16.44.07.36-.81.36c-.15-.04-.48-.14-.51-.22-.14-.37-2.03-.31-2.39-.3-.25-.24-.5-.49-.68-.67-.13-.14-.22-.24-.24-.27-.02-.04-.06-.1-.1-.17-.12-.18-.3-.47-.26-.64l.33-1.47c.31-.21.56-.51.71-.85zm.13-.46c.02-.11.03-.21.03-.32 0-.34-.1-.68-.25-.96l.95-1.01.09-.03.96-.02c.19.13.78.51.78.63 0 .38.9.68 1.26.78l.04.22c-.08.2-.33.79-.38.8-.19.04-.71.36-.89.48h-.11l-.73.02-1.75-.59zm-.5-1.66c-.28-.3-.65-.52-1.05-.6v-1.01l-2.1-.9c0-.17.03-.71.33-.9.44-.29.45-.53.45-.76 0-.04 0-.09.01-.12s.02-.04.06-.05c.08-.03.21-.08.39-.18.48-.27.62-.38.62-.38l.02-.02.27-.5 1.23 1.23.07.02s1.85.37 1.84.38c-.12.14-.27.34-.41.53-.2.26-.38.51-.45.61-.13.2-.35 1.42-.39 1.67l-.89.98zm-7.03 8.88c-.66-.79-1.21-1.69-1.65-2.63l.21-.05c.21-.06.44-.13.66-.17.08-.02.15-.03.21-.04l.12-.02h.04c.16-.02.24-.04.45-.12.21-.09.36-.25.53-.45l.03-.03c.06-.06.12-.14.19-.2.07-.07.15-.14.23-.21l.08-.06c-.06.12-.12.24-.15.31-.05.12-.06.26-.04.4.03.17.09.34.13.45l.04.09c.06.18.13.37.39.53.03.04.02.18 0 .35-.02.21-.08.43-.15.56l-1.05.29-.08.77-.19.23zm-1.85-3.08c-.25-.6-.46-1.21-.61-1.82.15.04.3.06.41.09.09.01.15.02.18.03.09.02.71.97 1.02 1.45l-.03.01c-.2.04-.45.11-.69.17-.09.02-.19.05-.28.07z" class="fil3"/></svg>